<?xml version="1.0" encoding="UTF-8"?>
<svg id="Layer_1" xmlns="http://www.w3.org/2000/svg" viewBox="0 0 31.96 31.96">
  <defs>
    <style>
      .cls-1 {
        fill: #fff;
      }

      .cls-2 {
        fill: #2d2d2d;
      }
    </style>
  </defs>
  <rect class="cls-1" x="2.75" y="4.51" width="26.52" height="22.46"/>
  <path class="cls-2" d="M13.49,0C15.15,0,16.81,0,18.48,0c.13.02.27.04.4.05,2.48.17,4.95.31,7.43.52,2.47.21,4.66,2.2,5.01,4.66.28,1.96.36,3.95.52,5.92.06.77.09,1.55.13,2.33v4.99c-.02.13-.04.26-.05.4-.17,2.49-.31,4.98-.52,7.46-.22,2.55-2.43,4.79-4.98,5.04-2.18.22-4.37.39-6.56.49-4.76.22-9.52.03-14.26-.48-2.52-.27-4.77-2.47-5.01-4.99-.21-2.18-.39-4.37-.49-6.56-.21-4.73-.04-9.46.47-14.17C.83,3.17,2.77.99,5.26.64c1.93-.27,3.89-.36,5.84-.51C11.89.07,12.69.04,13.49,0ZM17.03,14.17c0-.32,0-.58,0-.84,0-.52-.22-.74-.74-.75-.91,0-1.83,0-2.74,0-.52,0-.74.22-.74.74,0,3.96,0,7.92,0,11.88,0,.53.23.75.77.75.85,0,1.71,0,2.56,0,.71,0,.89-.18.89-.88,0-2,0-3.99,0-5.99,0-.75.16-1.47.57-2.11.51-.8,1.27-1.06,2.18-.94.83.11,1.39.6,1.58,1.39.16.65.23,1.33.24,2,.03,1.92,0,3.85,0,5.77,0,.54.22.75.76.76.94,0,1.87,0,2.81,0,.53,0,.76-.23.76-.76,0-2.19,0-4.39-.01-6.58,0-1-.09-1.99-.37-2.96-.4-1.37-1.15-2.44-2.54-2.95-.99-.36-2.01-.39-3.04-.25-1.16.15-2.11.66-2.8,1.62-.02.02-.04.04-.12.1ZM6.68,19.25c0,1.98,0,3.95,0,5.93,0,.53.25.78.79.78.87,0,1.75,0,2.62,0,.55,0,.81-.24.81-.79,0-3.93,0-7.86,0-11.79,0-.56-.25-.79-.8-.8-.86,0-1.73,0-2.59,0-.59,0-.82.24-.82.84,0,1.94,0,3.89,0,5.83ZM11.51,8.74c.02-1.49-1.17-2.72-2.65-2.75-1.52-.03-2.77,1.17-2.79,2.68-.02,1.5,1.18,2.74,2.67,2.76,1.53.02,2.75-1.16,2.77-2.69Z"/>
</svg>