<?xml version="1.0" encoding="UTF-8"?>
<svg id="Layer_1" xmlns="http://www.w3.org/2000/svg" viewBox="0 0 31.96 31.96">
  <defs>
    <style>
      .cls-1 {
        fill: #fff;
      }

      .cls-2 {
        fill: #2d2d2d;
      }
    </style>
  </defs>
  <path class="cls-2" d="M31.83,11.15c-.16-1.98-.24-3.96-.52-5.92-.35-2.46-2.54-4.45-5.01-4.66-2.47-.21-4.95-.35-7.43-.52-.13,0-.27-.03-.4-.05h-4.99c-.8.04-1.6.07-2.39.13-1.95.15-3.91.24-5.84.51C2.77.99.83,3.17.56,5.67.05,10.38-.12,15.11.09,19.84c.1,2.19.28,4.38.49,6.56.24,2.52,2.49,4.72,5.01,4.99,4.74.51,9.5.7,14.26.48,2.19-.1,4.38-.28,6.56-.49,2.55-.25,4.76-2.49,4.98-5.04.21-2.48.35-4.98.52-7.46,0-.13.03-.27.05-.4v-4.99c-.04-.78-.06-1.55-.13-2.33Z"/>
  <g>
    <path class="cls-1" d="M22.62,23.35h-13.29c-.17-.03-.35-.06-.52-.11-1.22-.32-2.02-1.36-2.03-2.67,0-1.95,0-3.89,0-5.84,0-.06,0-.12.01-.21.08.05.14.08.2.11,2.44,1.51,4.88,3.03,7.33,4.53,1.09.66,2.22.66,3.31,0,2.45-1.49,4.88-3.01,7.31-4.52.07-.04.13-.08.22-.12,0,.05.02.09.02.12,0,2.03.01,4.05,0,6.08-.01,1.19-.83,2.19-1.98,2.5-.19.05-.38.08-.57.12Z"/>
    <path class="cls-1" d="M15.98,8.61c2.11,0,4.23,0,6.34,0,.87,0,1.62.28,2.2.95.41.47.62,1.03.65,1.65.01.34.01.68,0,1.01,0,.09-.07.21-.14.25-2.54,1.56-5.09,3.11-7.63,4.66-.31.19-.63.38-.94.57-.33.2-.65.2-.97,0-2.86-1.74-5.71-3.49-8.57-5.23-.06-.04-.14-.11-.14-.17.01-.54-.03-1.09.08-1.61.27-1.28,1.36-2.08,2.73-2.08,2.13,0,4.26,0,6.38,0Z"/>
  </g>
</svg>